# MagicaVoxel @ Ephtracy

# group
g flatchick

# material
mtllib flatchick.mtl
usemtl palette

# normals
vn -1 0 0
vn 1 0 0
vn 0 0 1
vn 0 0 -1
vn 0 -1 0
vn 0 1 0

# texcoords
vt 0.0878906 0.5
vt 0.0917969 0.5
vt 0.970703 0.5

# verts
v -5 0 3
v -5 0 -3
v -5 2 3
v -5 2 -3
v -4 0 4
v -4 0 3
v -4 0 -3
v -4 0 -4
v -4 2 4
v -4 2 3
v -4 2 -3
v -4 2 -4
v -2 1 5
v -2 1 4
v -2 1 -4
v -2 1 -5
v -2 2 5
v -2 2 4
v -2 2 -4
v -2 2 -5
v -1 2 4
v -1 2 -4
v -1 3 4
v -1 3 1
v -1 3 -1
v -1 3 -4
v -1 4 1
v -1 4 -1
v 2 1 5
v 2 1 4
v 2 1 -4
v 2 1 -5
v 2 2 5
v 2 2 4
v 2 2 -4
v 2 2 -5
v 3 3 1
v 3 3 -1
v 3 4 1
v 3 4 -1
v 4 0 4
v 4 0 -4
v 4 2 1
v 4 2 -1
v 4 3 4
v 4 3 1
v 4 3 -1
v 4 3 -4
v 6 2 1
v 6 2 -1
v 6 3 1
v 6 3 -1
v -2 1 5
v -2 2 5
v 2 1 5
v 2 2 5
v -4 0 4
v -4 2 4
v -2 1 4
v -2 2 4
v -1 2 4
v -1 3 4
v 2 1 4
v 2 2 4
v 4 0 4
v 4 3 4
v -5 0 3
v -5 2 3
v -4 0 3
v -4 2 3
v -1 3 1
v -1 4 1
v 3 3 1
v 3 4 1
v 4 2 1
v 4 3 1
v 6 2 1
v 6 3 1
v -1 3 -1
v -1 4 -1
v 3 3 -1
v 3 4 -1
v 4 2 -1
v 4 3 -1
v 6 2 -1
v 6 3 -1
v -5 0 -3
v -5 2 -3
v -4 0 -3
v -4 2 -3
v -4 0 -4
v -4 2 -4
v -2 1 -4
v -2 2 -4
v -1 2 -4
v -1 3 -4
v 2 1 -4
v 2 2 -4
v 4 0 -4
v 4 3 -4
v -2 1 -5
v -2 2 -5
v 2 1 -5
v 2 2 -5
v -4 0 4
v 4 0 4
v -5 0 3
v -4 0 3
v -5 0 -3
v -4 0 -3
v -4 0 -4
v 4 0 -4
v -2 1 5
v 2 1 5
v -2 1 4
v 2 1 4
v -2 1 -4
v 2 1 -4
v -2 1 -5
v 2 1 -5
v 4 2 1
v 6 2 1
v 4 2 -1
v 6 2 -1
v -2 2 5
v 2 2 5
v -4 2 4
v -2 2 4
v -1 2 4
v 2 2 4
v -5 2 3
v -4 2 3
v -5 2 -3
v -4 2 -3
v -4 2 -4
v -2 2 -4
v -1 2 -4
v 2 2 -4
v -2 2 -5
v 2 2 -5
v -1 3 4
v 4 3 4
v -1 3 1
v 3 3 1
v 4 3 1
v 6 3 1
v -1 3 -1
v 3 3 -1
v 4 3 -1
v 6 3 -1
v -1 3 -4
v 4 3 -4
v -1 4 1
v 3 4 1
v -1 4 -1
v 3 4 -1

# faces
f 3/3/1 2/3/1 1/3/1
f 4/3/1 2/3/1 3/3/1
f 9/3/1 6/3/1 5/3/1
f 10/3/1 6/3/1 9/3/1
f 11/3/1 8/3/1 7/3/1
f 12/3/1 8/3/1 11/3/1
f 17/3/1 14/3/1 13/3/1
f 18/3/1 14/3/1 17/3/1
f 19/3/1 16/3/1 15/3/1
f 20/3/1 16/3/1 19/3/1
f 23/3/1 22/3/1 21/3/1
f 24/3/1 22/3/1 23/3/1
f 25/3/1 22/3/1 24/3/1
f 26/3/1 22/3/1 25/3/1
f 27/1/1 25/1/1 24/1/1
f 28/1/1 25/1/1 27/1/1
f 29/3/2 30/3/2 33/3/2
f 33/3/2 30/3/2 34/3/2
f 31/3/2 32/3/2 35/3/2
f 35/3/2 32/3/2 36/3/2
f 37/1/2 38/1/2 39/1/2
f 39/1/2 38/1/2 40/1/2
f 41/3/2 42/3/2 43/3/2
f 43/3/2 42/3/2 44/3/2
f 41/3/2 43/3/2 45/3/2
f 45/3/2 43/3/2 46/3/2
f 44/3/2 42/3/2 47/3/2
f 47/3/2 42/3/2 48/3/2
f 49/2/2 50/2/2 51/2/2
f 51/2/2 50/2/2 52/2/2
f 55/3/3 54/3/3 53/3/3
f 56/3/3 54/3/3 55/3/3
f 59/3/3 58/3/3 57/3/3
f 60/3/3 58/3/3 59/3/3
f 63/3/3 59/3/3 57/3/3
f 64/3/3 62/3/3 61/3/3
f 65/3/3 63/3/3 57/3/3
f 65/3/3 64/3/3 63/3/3
f 66/3/3 62/3/3 64/3/3
f 66/3/3 64/3/3 65/3/3
f 69/3/3 68/3/3 67/3/3
f 70/3/3 68/3/3 69/3/3
f 73/1/3 72/1/3 71/1/3
f 74/1/3 72/1/3 73/1/3
f 77/2/3 76/2/3 75/2/3
f 78/2/3 76/2/3 77/2/3
f 79/1/4 80/1/4 81/1/4
f 81/1/4 80/1/4 82/1/4
f 83/2/4 84/2/4 85/2/4
f 85/2/4 84/2/4 86/2/4
f 87/3/4 88/3/4 89/3/4
f 89/3/4 88/3/4 90/3/4
f 91/3/4 92/3/4 93/3/4
f 93/3/4 92/3/4 94/3/4
f 91/3/4 93/3/4 97/3/4
f 95/3/4 96/3/4 98/3/4
f 91/3/4 97/3/4 99/3/4
f 97/3/4 98/3/4 99/3/4
f 98/3/4 96/3/4 100/3/4
f 99/3/4 98/3/4 100/3/4
f 101/3/4 102/3/4 103/3/4
f 103/3/4 102/3/4 104/3/4
f 108/3/5 106/3/5 105/3/5
f 109/3/5 108/3/5 107/3/5
f 110/3/5 106/3/5 108/3/5
f 110/3/5 108/3/5 109/3/5
f 111/3/5 106/3/5 110/3/5
f 112/3/5 106/3/5 111/3/5
f 115/3/5 114/3/5 113/3/5
f 116/3/5 114/3/5 115/3/5
f 119/3/5 118/3/5 117/3/5
f 120/3/5 118/3/5 119/3/5
f 123/2/5 122/2/5 121/2/5
f 124/2/5 122/2/5 123/2/5
f 125/3/6 126/3/6 128/3/6
f 128/3/6 126/3/6 129/3/6
f 129/3/6 126/3/6 130/3/6
f 127/3/6 128/3/6 132/3/6
f 128/3/6 129/3/6 132/3/6
f 131/3/6 132/3/6 133/3/6
f 132/3/6 129/3/6 134/3/6
f 133/3/6 132/3/6 134/3/6
f 134/3/6 129/3/6 135/3/6
f 135/3/6 129/3/6 136/3/6
f 136/3/6 129/3/6 137/3/6
f 137/3/6 138/3/6 139/3/6
f 136/3/6 137/3/6 139/3/6
f 139/3/6 138/3/6 140/3/6
f 141/3/6 142/3/6 143/3/6
f 143/3/6 142/3/6 144/3/6
f 144/3/6 142/3/6 145/3/6
f 144/3/6 145/3/6 148/3/6
f 145/2/6 146/2/6 149/2/6
f 148/3/6 145/3/6 149/3/6
f 149/2/6 146/2/6 150/2/6
f 147/3/6 148/3/6 151/3/6
f 148/3/6 149/3/6 151/3/6
f 151/3/6 149/3/6 152/3/6
f 153/1/6 154/1/6 155/1/6
f 155/1/6 154/1/6 156/1/6
