# MagicaVoxel @ Ephtracy

# group
g whitesheep

# material
mtllib whitesheep.mtl
usemtl palette

# normals
vn -1 0 0
vn 1 0 0
vn 0 0 1
vn 0 0 -1
vn 0 -1 0
vn 0 1 0

# texcoords
vt 0.0566406 0.5
vt 0.177734 0.5
vt 0.537109 0.5
vt 0.958984 0.5

# verts
v -1 4 11
v -1 4 8
v -1 4 7
v -1 4 4
v -1 5 12
v -1 5 11
v -1 5 8
v -1 5 7
v -1 5 4
v -1 5 3
v -1 14 12
v -1 14 3
v 0 0 10
v 0 0 9
v 0 0 6
v 0 0 5
v 0 2 10
v 0 2 9
v 0 2 6
v 0 2 5
v 0 4 10
v 0 4 9
v 0 4 6
v 0 4 5
v 5 4 11
v 5 4 8
v 5 4 7
v 5 4 4
v 5 5 11
v 5 5 8
v 5 5 7
v 5 5 4
v 6 0 10
v 6 0 9
v 6 0 6
v 6 0 5
v 6 2 10
v 6 2 9
v 6 2 6
v 6 2 5
v 6 4 10
v 6 4 9
v 6 4 6
v 6 4 5
v 11 9 11
v 11 9 10
v 11 9 5
v 11 9 4
v 11 10 11
v 11 10 10
v 11 10 5
v 11 10 4
v 1 0 10
v 1 0 9
v 1 0 6
v 1 0 5
v 1 2 10
v 1 2 9
v 1 2 6
v 1 2 5
v 1 4 10
v 1 4 9
v 1 4 6
v 1 4 5
v 2 4 11
v 2 4 8
v 2 4 7
v 2 4 4
v 2 5 11
v 2 5 8
v 2 5 7
v 2 5 4
v 7 0 10
v 7 0 9
v 7 0 6
v 7 0 5
v 7 2 10
v 7 2 9
v 7 2 6
v 7 2 5
v 7 4 10
v 7 4 9
v 7 4 6
v 7 4 5
v 8 4 11
v 8 4 8
v 8 4 7
v 8 4 4
v 8 5 12
v 8 5 11
v 8 5 8
v 8 5 7
v 8 5 4
v 8 5 3
v 8 6 12
v 8 6 3
v 9 6 12
v 9 6 10
v 9 6 5
v 9 6 3
v 9 8 11
v 9 8 10
v 9 8 5
v 9 8 4
v 9 11 11
v 9 11 10
v 9 11 5
v 9 11 4
v 9 12 12
v 9 12 10
v 9 12 9
v 9 12 6
v 9 12 5
v 9 12 3
v 9 14 12
v 9 14 9
v 9 14 6
v 9 14 3
v 10 9 11
v 10 9 10
v 10 9 5
v 10 9 4
v 10 10 11
v 10 10 10
v 10 10 5
v 10 10 4
v 11 12 9
v 11 12 6
v 11 14 9
v 11 14 6
v 12 8 11
v 12 8 10
v 12 8 5
v 12 8 4
v 12 11 11
v 12 11 10
v 12 11 5
v 12 11 4
v 13 6 10
v 13 6 5
v 13 7 10
v 13 7 5
v 13 8 10
v 13 8 5
v 13 12 10
v 13 12 5
v -1 5 12
v -1 14 12
v 8 5 12
v 8 6 12
v 8 12 12
v 9 6 12
v 9 12 12
v 9 14 12
v -1 4 11
v -1 5 11
v 2 4 11
v 2 5 11
v 5 4 11
v 5 5 11
v 8 4 11
v 8 5 11
v 9 8 11
v 9 11 11
v 10 9 11
v 10 10 11
v 11 9 11
v 11 10 11
v 12 8 11
v 12 11 11
v 0 0 10
v 0 2 10
v 0 4 10
v 1 0 10
v 1 2 10
v 1 4 10
v 6 0 10
v 6 2 10
v 6 4 10
v 7 0 10
v 7 2 10
v 7 4 10
v 9 6 10
v 9 8 10
v 9 11 10
v 9 12 10
v 10 9 10
v 10 10 10
v 11 9 10
v 11 10 10
v 12 7 10
v 12 8 10
v 12 11 10
v 13 6 10
v 13 7 10
v 13 8 10
v 13 12 10
v 9 12 9
v 9 14 9
v 11 12 9
v 11 14 9
v -1 4 7
v -1 5 7
v 2 4 7
v 2 5 7
v 5 4 7
v 5 5 7
v 8 4 7
v 8 5 7
v 0 0 6
v 0 2 6
v 0 4 6
v 1 0 6
v 1 2 6
v 1 4 6
v 6 0 6
v 6 2 6
v 6 4 6
v 7 0 6
v 7 2 6
v 7 4 6
v 0 0 9
v 0 2 9
v 0 4 9
v 1 0 9
v 1 2 9
v 1 4 9
v 6 0 9
v 6 2 9
v 6 4 9
v 7 0 9
v 7 2 9
v 7 4 9
v -1 4 8
v -1 5 8
v 2 4 8
v 2 5 8
v 5 4 8
v 5 5 8
v 8 4 8
v 8 5 8
v 9 12 6
v 9 14 6
v 11 12 6
v 11 14 6
v 0 0 5
v 0 2 5
v 0 4 5
v 1 0 5
v 1 2 5
v 1 4 5
v 6 0 5
v 6 2 5
v 6 4 5
v 7 0 5
v 7 2 5
v 7 4 5
v 9 6 5
v 9 8 5
v 9 11 5
v 9 12 5
v 10 9 5
v 10 10 5
v 11 9 5
v 11 10 5
v 12 7 5
v 12 8 5
v 12 11 5
v 13 6 5
v 13 7 5
v 13 8 5
v 13 12 5
v -1 4 4
v -1 5 4
v 2 4 4
v 2 5 4
v 5 4 4
v 5 5 4
v 8 4 4
v 8 5 4
v 9 8 4
v 9 11 4
v 10 9 4
v 10 10 4
v 11 9 4
v 11 10 4
v 12 8 4
v 12 11 4
v -1 5 3
v -1 14 3
v 8 5 3
v 8 6 3
v 8 12 3
v 9 6 3
v 9 12 3
v 9 14 3
v 0 0 10
v 1 0 10
v 6 0 10
v 7 0 10
v 0 0 9
v 1 0 9
v 6 0 9
v 7 0 9
v 0 0 6
v 1 0 6
v 6 0 6
v 7 0 6
v 0 0 5
v 1 0 5
v 6 0 5
v 7 0 5
v -1 4 11
v 2 4 11
v 5 4 11
v 8 4 11
v 0 4 10
v 1 4 10
v 6 4 10
v 7 4 10
v 0 4 9
v 1 4 9
v 6 4 9
v 7 4 9
v -1 4 8
v 2 4 8
v 5 4 8
v 8 4 8
v -1 4 7
v 2 4 7
v 5 4 7
v 8 4 7
v 0 4 6
v 1 4 6
v 6 4 6
v 7 4 6
v 0 4 5
v 1 4 5
v 6 4 5
v 7 4 5
v -1 4 4
v 2 4 4
v 5 4 4
v 8 4 4
v -1 5 12
v 8 5 12
v -1 5 11
v 2 5 11
v 5 5 11
v 8 5 11
v -1 5 8
v 2 5 8
v 5 5 8
v 8 5 8
v -1 5 7
v 2 5 7
v 5 5 7
v 8 5 7
v -1 5 4
v 2 5 4
v 5 5 4
v 8 5 4
v -1 5 3
v 8 5 3
v 8 6 12
v 9 6 12
v 9 6 10
v 13 6 10
v 9 6 5
v 13 6 5
v 8 6 3
v 9 6 3
v 9 8 11
v 12 8 11
v 9 8 10
v 12 8 10
v 9 8 5
v 12 8 5
v 9 8 4
v 12 8 4
v 10 10 11
v 11 10 11
v 10 10 10
v 11 10 10
v 10 10 5
v 11 10 5
v 10 10 4
v 11 10 4
v 10 9 11
v 11 9 11
v 10 9 10
v 11 9 10
v 10 9 5
v 11 9 5
v 10 9 4
v 11 9 4
v 9 11 11
v 12 11 11
v 9 11 10
v 12 11 10
v 9 11 5
v 12 11 5
v 9 11 4
v 12 11 4
v 9 12 10
v 13 12 10
v 9 12 9
v 11 12 9
v 9 12 6
v 11 12 6
v 9 12 5
v 13 12 5
v -1 14 12
v 9 14 12
v 9 14 9
v 11 14 9
v 9 14 6
v 11 14 6
v -1 14 3
v 9 14 3

# faces
f 6/4/1 2/4/1 1/4/1
f 7/4/1 2/4/1 6/4/1
f 8/4/1 4/4/1 3/4/1
f 9/4/1 4/4/1 8/4/1
f 11/4/1 7/4/1 6/4/1
f 11/4/1 10/4/1 9/4/1
f 11/4/1 9/4/1 8/4/1
f 11/4/1 8/4/1 7/4/1
f 11/4/1 6/4/1 5/4/1
f 12/4/1 10/4/1 11/4/1
f 17/3/1 14/3/1 13/3/1
f 18/3/1 14/3/1 17/3/1
f 19/3/1 16/3/1 15/3/1
f 20/3/1 16/3/1 19/3/1
f 21/2/1 18/2/1 17/2/1
f 22/2/1 18/2/1 21/2/1
f 23/2/1 20/2/1 19/2/1
f 24/2/1 20/2/1 23/2/1
f 29/4/1 26/4/1 25/4/1
f 30/4/1 26/4/1 29/4/1
f 31/4/1 28/4/1 27/4/1
f 32/4/1 28/4/1 31/4/1
f 37/3/1 34/3/1 33/3/1
f 38/3/1 34/3/1 37/3/1
f 39/3/1 36/3/1 35/3/1
f 40/3/1 36/3/1 39/3/1
f 41/2/1 38/2/1 37/2/1
f 42/2/1 38/2/1 41/2/1
f 43/2/1 40/2/1 39/2/1
f 44/2/1 40/2/1 43/2/1
f 49/4/1 46/4/1 45/4/1
f 50/4/1 46/4/1 49/4/1
f 51/4/1 48/4/1 47/4/1
f 52/4/1 48/4/1 51/4/1
f 53/3/2 54/3/2 57/3/2
f 57/3/2 54/3/2 58/3/2
f 55/3/2 56/3/2 59/3/2
f 59/3/2 56/3/2 60/3/2
f 57/2/2 58/2/2 61/2/2
f 61/2/2 58/2/2 62/2/2
f 59/2/2 60/2/2 63/2/2
f 63/2/2 60/2/2 64/2/2
f 65/4/2 66/4/2 69/4/2
f 69/4/2 66/4/2 70/4/2
f 67/4/2 68/4/2 71/4/2
f 71/4/2 68/4/2 72/4/2
f 73/3/2 74/3/2 77/3/2
f 77/3/2 74/3/2 78/3/2
f 75/3/2 76/3/2 79/3/2
f 79/3/2 76/3/2 80/3/2
f 77/2/2 78/2/2 81/2/2
f 81/2/2 78/2/2 82/2/2
f 79/2/2 80/2/2 83/2/2
f 83/2/2 80/2/2 84/2/2
f 85/4/2 86/4/2 90/4/2
f 90/4/2 86/4/2 91/4/2
f 87/4/2 88/4/2 92/4/2
f 92/4/2 88/4/2 93/4/2
f 90/4/2 91/4/2 95/4/2
f 93/4/2 94/4/2 95/4/2
f 92/4/2 93/4/2 95/4/2
f 91/4/2 92/4/2 95/4/2
f 89/4/2 90/4/2 95/4/2
f 95/4/2 94/4/2 96/4/2
f 97/3/2 98/3/2 101/3/2
f 101/3/2 98/3/2 102/3/2
f 99/3/2 100/3/2 103/3/2
f 103/3/2 100/3/2 104/3/2
f 97/3/2 101/3/2 105/3/2
f 104/3/2 100/3/2 108/3/2
f 105/3/2 106/3/2 109/3/2
f 97/3/2 105/3/2 109/3/2
f 109/3/2 106/3/2 110/3/2
f 107/3/2 108/3/2 113/3/2
f 108/3/2 100/3/2 114/3/2
f 113/3/2 108/3/2 114/3/2
f 110/4/2 111/4/2 115/4/2
f 109/4/2 110/4/2 115/4/2
f 115/4/2 111/4/2 116/4/2
f 112/4/2 113/4/2 117/4/2
f 113/4/2 114/4/2 117/4/2
f 117/4/2 114/4/2 118/4/2
f 119/4/2 120/4/2 123/4/2
f 123/4/2 120/4/2 124/4/2
f 121/4/2 122/4/2 125/4/2
f 125/4/2 122/4/2 126/4/2
f 127/4/2 128/4/2 129/4/2
f 129/4/2 128/4/2 130/4/2
f 131/4/2 132/4/2 135/4/2
f 135/4/2 132/4/2 136/4/2
f 133/4/2 134/4/2 137/4/2
f 137/4/2 134/4/2 138/4/2
f 139/3/2 140/3/2 141/3/2
f 141/3/2 140/3/2 142/3/2
f 141/1/2 142/1/2 143/1/2
f 143/1/2 142/1/2 144/1/2
f 143/3/2 144/3/2 145/3/2
f 145/3/2 144/3/2 146/3/2
f 149/4/3 148/4/3 147/4/3
f 150/4/3 148/4/3 149/4/3
f 151/4/3 148/4/3 150/4/3
f 152/3/3 151/3/3 150/3/3
f 153/4/3 148/4/3 151/4/3
f 153/3/3 151/3/3 152/3/3
f 154/4/3 148/4/3 153/4/3
f 157/4/3 156/4/3 155/4/3
f 158/4/3 156/4/3 157/4/3
f 161/4/3 160/4/3 159/4/3
f 162/4/3 160/4/3 161/4/3
f 165/4/3 164/4/3 163/4/3
f 166/4/3 164/4/3 165/4/3
f 167/4/3 165/4/3 163/4/3
f 168/4/3 164/4/3 166/4/3
f 169/4/3 167/4/3 163/4/3
f 169/4/3 168/4/3 167/4/3
f 170/4/3 164/4/3 168/4/3
f 170/4/3 168/4/3 169/4/3
f 174/3/3 172/3/3 171/3/3
f 175/2/3 173/2/3 172/2/3
f 175/3/3 172/3/3 174/3/3
f 176/2/3 173/2/3 175/2/3
f 180/3/3 178/3/3 177/3/3
f 181/2/3 179/2/3 178/2/3
f 181/3/3 178/3/3 180/3/3
f 182/2/3 179/2/3 181/2/3
f 189/3/3 188/3/3 187/3/3
f 190/3/3 188/3/3 189/3/3
f 191/3/3 184/3/3 183/3/3
f 192/3/3 184/3/3 191/3/3
f 193/3/3 186/3/3 185/3/3
f 194/3/3 191/3/3 183/3/3
f 195/1/3 192/1/3 191/1/3
f 195/3/3 191/3/3 194/3/3
f 196/3/3 193/3/3 192/3/3
f 196/1/3 192/1/3 195/1/3
f 197/3/3 186/3/3 193/3/3
f 197/3/3 193/3/3 196/3/3
f 200/4/3 199/4/3 198/4/3
f 201/4/3 199/4/3 200/4/3
f 204/4/3 203/4/3 202/4/3
f 205/4/3 203/4/3 204/4/3
f 208/4/3 207/4/3 206/4/3
f 209/4/3 207/4/3 208/4/3
f 213/3/3 211/3/3 210/3/3
f 214/2/3 212/2/3 211/2/3
f 214/3/3 211/3/3 213/3/3
f 215/2/3 212/2/3 214/2/3
f 219/3/3 217/3/3 216/3/3
f 220/2/3 218/2/3 217/2/3
f 220/3/3 217/3/3 219/3/3
f 221/2/3 218/2/3 220/2/3
f 222/3/4 223/3/4 225/3/4
f 223/2/4 224/2/4 226/2/4
f 225/3/4 223/3/4 226/3/4
f 226/2/4 224/2/4 227/2/4
f 228/3/4 229/3/4 231/3/4
f 229/2/4 230/2/4 232/2/4
f 231/3/4 229/3/4 232/3/4
f 232/2/4 230/2/4 233/2/4
f 234/4/4 235/4/4 236/4/4
f 236/4/4 235/4/4 237/4/4
f 238/4/4 239/4/4 240/4/4
f 240/4/4 239/4/4 241/4/4
f 242/4/4 243/4/4 244/4/4
f 244/4/4 243/4/4 245/4/4
f 246/3/4 247/3/4 249/3/4
f 247/2/4 248/2/4 250/2/4
f 249/3/4 247/3/4 250/3/4
f 250/2/4 248/2/4 251/2/4
f 252/3/4 253/3/4 255/3/4
f 253/2/4 254/2/4 256/2/4
f 255/3/4 253/3/4 256/3/4
f 256/2/4 254/2/4 257/2/4
f 262/3/4 263/3/4 264/3/4
f 264/3/4 263/3/4 265/3/4
f 258/3/4 259/3/4 266/3/4
f 266/3/4 259/3/4 267/3/4
f 260/3/4 261/3/4 268/3/4
f 258/3/4 266/3/4 269/3/4
f 266/1/4 267/1/4 270/1/4
f 269/3/4 266/3/4 270/3/4
f 267/3/4 268/3/4 271/3/4
f 270/1/4 267/1/4 271/1/4
f 268/3/4 261/3/4 272/3/4
f 271/3/4 268/3/4 272/3/4
f 273/4/4 274/4/4 275/4/4
f 275/4/4 274/4/4 276/4/4
f 277/4/4 278/4/4 279/4/4
f 279/4/4 278/4/4 280/4/4
f 281/4/4 282/4/4 283/4/4
f 283/4/4 282/4/4 284/4/4
f 281/4/4 283/4/4 285/4/4
f 284/4/4 282/4/4 286/4/4
f 281/4/4 285/4/4 287/4/4
f 285/4/4 286/4/4 287/4/4
f 286/4/4 282/4/4 288/4/4
f 287/4/4 286/4/4 288/4/4
f 289/4/4 290/4/4 291/4/4
f 291/4/4 290/4/4 292/4/4
f 292/4/4 290/4/4 293/4/4
f 292/3/4 293/3/4 294/3/4
f 293/4/4 290/4/4 295/4/4
f 294/3/4 293/3/4 295/3/4
f 295/4/4 290/4/4 296/4/4
f 301/3/5 298/3/5 297/3/5
f 302/3/5 298/3/5 301/3/5
f 303/3/5 300/3/5 299/3/5
f 304/3/5 300/3/5 303/3/5
f 309/3/5 306/3/5 305/3/5
f 310/3/5 306/3/5 309/3/5
f 311/3/5 308/3/5 307/3/5
f 312/3/5 308/3/5 311/3/5
f 317/4/5 314/4/5 313/4/5
f 318/4/5 314/4/5 317/4/5
f 319/4/5 316/4/5 315/4/5
f 320/4/5 316/4/5 319/4/5
f 321/4/5 317/4/5 313/4/5
f 322/4/5 314/4/5 318/4/5
f 323/4/5 319/4/5 315/4/5
f 324/4/5 316/4/5 320/4/5
f 325/4/5 321/4/5 313/4/5
f 325/4/5 322/4/5 321/4/5
f 326/4/5 314/4/5 322/4/5
f 326/4/5 322/4/5 325/4/5
f 327/4/5 324/4/5 323/4/5
f 327/4/5 323/4/5 315/4/5
f 328/4/5 316/4/5 324/4/5
f 328/4/5 324/4/5 327/4/5
f 333/4/5 330/4/5 329/4/5
f 334/4/5 330/4/5 333/4/5
f 335/4/5 332/4/5 331/4/5
f 336/4/5 332/4/5 335/4/5
f 337/4/5 333/4/5 329/4/5
f 338/4/5 330/4/5 334/4/5
f 339/4/5 335/4/5 331/4/5
f 340/4/5 332/4/5 336/4/5
f 341/4/5 337/4/5 329/4/5
f 341/4/5 338/4/5 337/4/5
f 342/4/5 330/4/5 338/4/5
f 342/4/5 338/4/5 341/4/5
f 343/4/5 340/4/5 339/4/5
f 343/4/5 339/4/5 331/4/5
f 344/4/5 332/4/5 340/4/5
f 344/4/5 340/4/5 343/4/5
f 347/4/5 346/4/5 345/4/5
f 348/4/5 346/4/5 347/4/5
f 349/4/5 346/4/5 348/4/5
f 350/4/5 346/4/5 349/4/5
f 352/4/5 349/4/5 348/4/5
f 353/4/5 349/4/5 352/4/5
f 355/4/5 352/4/5 351/4/5
f 355/4/5 354/4/5 353/4/5
f 355/4/5 353/4/5 352/4/5
f 356/4/5 354/4/5 355/4/5
f 357/4/5 354/4/5 356/4/5
f 358/4/5 354/4/5 357/4/5
f 360/4/5 357/4/5 356/4/5
f 361/4/5 357/4/5 360/4/5
f 363/4/5 360/4/5 359/4/5
f 363/4/5 362/4/5 361/4/5
f 363/4/5 361/4/5 360/4/5
f 364/4/5 362/4/5 363/4/5
f 367/3/5 366/3/5 365/3/5
f 369/3/5 367/3/5 365/3/5
f 369/3/5 368/3/5 367/3/5
f 370/3/5 368/3/5 369/3/5
f 371/3/5 369/3/5 365/3/5
f 372/3/5 369/3/5 371/3/5
f 375/4/5 374/4/5 373/4/5
f 376/4/5 374/4/5 375/4/5
f 379/4/5 378/4/5 377/4/5
f 380/4/5 378/4/5 379/4/5
f 383/4/5 382/4/5 381/4/5
f 384/4/5 382/4/5 383/4/5
f 387/4/5 386/4/5 385/4/5
f 388/4/5 386/4/5 387/4/5
f 389/4/6 390/4/6 391/4/6
f 391/4/6 390/4/6 392/4/6
f 393/4/6 394/4/6 395/4/6
f 395/4/6 394/4/6 396/4/6
f 397/4/6 398/4/6 399/4/6
f 399/4/6 398/4/6 400/4/6
f 401/4/6 402/4/6 403/4/6
f 403/4/6 402/4/6 404/4/6
f 405/3/6 406/3/6 407/3/6
f 407/3/6 406/3/6 408/3/6
f 408/3/6 406/3/6 410/3/6
f 409/3/6 410/3/6 411/3/6
f 410/3/6 406/3/6 412/3/6
f 411/3/6 410/3/6 412/3/6
f 413/4/6 414/4/6 415/4/6
f 413/4/6 415/4/6 417/4/6
f 415/4/6 416/4/6 417/4/6
f 417/4/6 416/4/6 418/4/6
f 413/4/6 417/4/6 419/4/6
f 419/4/6 417/4/6 420/4/6
