# MagicaVoxel @ Ephtracy

# group
g flatsheep

# material
mtllib flatsheep.mtl
usemtl palette

# normals
vn -1 0 0
vn 1 0 0
vn 0 0 1
vn 0 0 -1
vn 0 -1 0
vn 0 1 0

# texcoords
vt 0.0566406 0.5
vt 0.177734 0.5
vt 0.537109 0.5
vt 0.958984 0.5

# verts
v -1 0 11
v -1 0 4
v -1 6 11
v -1 6 4
v 1 2 15
v 1 2 13
v 1 2 11
v 1 2 4
v 1 2 2
v 1 2 -0
v 1 3 15
v 1 3 13
v 1 3 11
v 1 3 4
v 1 3 2
v 1 3 -0
v 6 2 15
v 6 2 13
v 6 2 11
v 6 2 4
v 6 2 2
v 6 2 -0
v 6 3 15
v 6 3 13
v 6 3 11
v 6 3 4
v 6 3 2
v 6 3 -0
v 11 3 11
v 11 3 10
v 11 3 5
v 11 3 4
v 11 4 11
v 11 4 10
v 11 4 5
v 11 4 4
v 2 2 15
v 2 2 13
v 2 2 11
v 2 2 4
v 2 2 2
v 2 2 -0
v 2 3 15
v 2 3 13
v 2 3 11
v 2 3 4
v 2 3 2
v 2 3 -0
v 7 2 15
v 7 2 13
v 7 2 11
v 7 2 4
v 7 2 2
v 7 2 -0
v 7 3 15
v 7 3 13
v 7 3 11
v 7 3 4
v 7 3 2
v 7 3 -0
v 9 0 11
v 9 0 10
v 9 0 5
v 9 0 4
v 9 2 11
v 9 2 10
v 9 2 5
v 9 2 4
v 9 5 11
v 9 5 10
v 9 5 5
v 9 5 4
v 9 6 11
v 9 6 10
v 9 6 5
v 9 6 4
v 10 3 11
v 10 3 10
v 10 3 5
v 10 3 4
v 10 4 11
v 10 4 10
v 10 4 5
v 10 4 4
v 12 2 11
v 12 2 10
v 12 2 5
v 12 2 4
v 12 5 11
v 12 5 10
v 12 5 5
v 12 5 4
v 13 0 10
v 13 0 5
v 13 1 10
v 13 1 5
v 13 2 10
v 13 2 5
v 13 6 10
v 13 6 5
v 1 2 15
v 1 3 15
v 2 2 15
v 2 3 15
v 6 2 15
v 6 3 15
v 7 2 15
v 7 3 15
v -1 0 11
v -1 6 11
v 1 2 11
v 1 3 11
v 2 2 11
v 2 3 11
v 6 2 11
v 6 3 11
v 7 2 11
v 7 3 11
v 8 0 11
v 8 6 11
v 9 0 11
v 9 2 11
v 9 5 11
v 9 6 11
v 10 3 11
v 10 4 11
v 11 3 11
v 11 4 11
v 12 2 11
v 12 5 11
v 9 0 10
v 9 2 10
v 9 5 10
v 9 6 10
v 10 3 10
v 10 4 10
v 11 3 10
v 11 4 10
v 12 1 10
v 12 2 10
v 12 5 10
v 13 0 10
v 13 1 10
v 13 2 10
v 13 6 10
v 9 0 5
v 9 2 5
v 9 5 5
v 9 6 5
v 10 3 5
v 10 4 5
v 11 3 5
v 11 4 5
v 12 1 5
v 12 2 5
v 12 5 5
v 13 0 5
v 13 1 5
v 13 2 5
v 13 6 5
v -1 0 4
v -1 6 4
v 1 2 4
v 1 3 4
v 2 2 4
v 2 3 4
v 6 2 4
v 6 3 4
v 7 2 4
v 7 3 4
v 8 0 4
v 8 6 4
v 9 0 4
v 9 2 4
v 9 5 4
v 9 6 4
v 10 3 4
v 10 4 4
v 11 3 4
v 11 4 4
v 12 2 4
v 12 5 4
v 1 2 -0
v 1 3 -0
v 2 2 -0
v 2 3 -0
v 6 2 -0
v 6 3 -0
v 7 2 -0
v 7 3 -0
v -1 0 11
v 8 0 11
v 9 0 11
v 9 0 10
v 13 0 10
v 9 0 5
v 13 0 5
v -1 0 4
v 8 0 4
v 9 0 4
v 1 2 15
v 2 2 15
v 6 2 15
v 7 2 15
v 1 2 13
v 2 2 13
v 6 2 13
v 7 2 13
v 1 2 11
v 2 2 11
v 6 2 11
v 7 2 11
v 9 2 11
v 12 2 11
v 9 2 10
v 12 2 10
v 9 2 5
v 12 2 5
v 1 2 4
v 2 2 4
v 6 2 4
v 7 2 4
v 9 2 4
v 12 2 4
v 1 2 2
v 2 2 2
v 6 2 2
v 7 2 2
v 1 2 -0
v 2 2 -0
v 6 2 -0
v 7 2 -0
v 10 4 11
v 11 4 11
v 10 4 10
v 11 4 10
v 10 4 5
v 11 4 5
v 10 4 4
v 11 4 4
v 1 3 15
v 2 3 15
v 6 3 15
v 7 3 15
v 1 3 13
v 2 3 13
v 6 3 13
v 7 3 13
v 1 3 11
v 2 3 11
v 6 3 11
v 7 3 11
v 10 3 11
v 11 3 11
v 10 3 10
v 11 3 10
v 10 3 5
v 11 3 5
v 1 3 4
v 2 3 4
v 6 3 4
v 7 3 4
v 10 3 4
v 11 3 4
v 1 3 2
v 2 3 2
v 6 3 2
v 7 3 2
v 1 3 -0
v 2 3 -0
v 6 3 -0
v 7 3 -0
v 9 5 11
v 12 5 11
v 9 5 10
v 12 5 10
v 9 5 5
v 12 5 5
v 9 5 4
v 12 5 4
v -1 6 11
v 8 6 11
v 9 6 11
v 9 6 10
v 13 6 10
v 9 6 5
v 13 6 5
v -1 6 4
v 8 6 4
v 9 6 4

# faces
f 3/4/1 2/4/1 1/4/1
f 4/4/1 2/4/1 3/4/1
f 11/3/1 6/3/1 5/3/1
f 12/2/1 7/2/1 6/2/1
f 12/3/1 6/3/1 11/3/1
f 13/2/1 7/2/1 12/2/1
f 14/2/1 9/2/1 8/2/1
f 15/3/1 10/3/1 9/3/1
f 15/2/1 9/2/1 14/2/1
f 16/3/1 10/3/1 15/3/1
f 23/3/1 18/3/1 17/3/1
f 24/2/1 19/2/1 18/2/1
f 24/3/1 18/3/1 23/3/1
f 25/2/1 19/2/1 24/2/1
f 26/2/1 21/2/1 20/2/1
f 27/3/1 22/3/1 21/3/1
f 27/2/1 21/2/1 26/2/1
f 28/3/1 22/3/1 27/3/1
f 33/4/1 30/4/1 29/4/1
f 34/4/1 30/4/1 33/4/1
f 35/4/1 32/4/1 31/4/1
f 36/4/1 32/4/1 35/4/1
f 37/3/2 38/3/2 43/3/2
f 38/2/2 39/2/2 44/2/2
f 43/3/2 38/3/2 44/3/2
f 44/2/2 39/2/2 45/2/2
f 40/2/2 41/2/2 46/2/2
f 41/3/2 42/3/2 47/3/2
f 46/2/2 41/2/2 47/2/2
f 47/3/2 42/3/2 48/3/2
f 49/3/2 50/3/2 55/3/2
f 50/2/2 51/2/2 56/2/2
f 55/3/2 50/3/2 56/3/2
f 56/2/2 51/2/2 57/2/2
f 52/2/2 53/2/2 58/2/2
f 53/3/2 54/3/2 59/3/2
f 58/2/2 53/2/2 59/2/2
f 59/3/2 54/3/2 60/3/2
f 61/3/2 62/3/2 65/3/2
f 65/3/2 62/3/2 66/3/2
f 63/3/2 64/3/2 67/3/2
f 67/3/2 64/3/2 68/3/2
f 69/3/2 70/3/2 73/3/2
f 73/3/2 70/3/2 74/3/2
f 71/3/2 72/3/2 75/3/2
f 75/3/2 72/3/2 76/3/2
f 77/4/2 78/4/2 81/4/2
f 81/4/2 78/4/2 82/4/2
f 79/4/2 80/4/2 83/4/2
f 83/4/2 80/4/2 84/4/2
f 85/4/2 86/4/2 89/4/2
f 89/4/2 86/4/2 90/4/2
f 87/4/2 88/4/2 91/4/2
f 91/4/2 88/4/2 92/4/2
f 93/3/2 94/3/2 95/3/2
f 95/3/2 94/3/2 96/3/2
f 95/1/2 96/1/2 97/1/2
f 97/1/2 96/1/2 98/1/2
f 97/3/2 98/3/2 99/3/2
f 99/3/2 98/3/2 100/3/2
f 103/3/3 102/3/3 101/3/3
f 104/3/3 102/3/3 103/3/3
f 107/3/3 106/3/3 105/3/3
f 108/3/3 106/3/3 107/3/3
f 111/4/3 110/4/3 109/4/3
f 112/4/3 110/4/3 111/4/3
f 113/4/3 111/4/3 109/4/3
f 114/4/3 110/4/3 112/4/3
f 115/4/3 113/4/3 109/4/3
f 115/4/3 114/4/3 113/4/3
f 116/4/3 110/4/3 114/4/3
f 116/4/3 114/4/3 115/4/3
f 117/4/3 115/4/3 109/4/3
f 118/4/3 110/4/3 116/4/3
f 119/4/3 117/4/3 109/4/3
f 119/4/3 118/4/3 117/4/3
f 120/4/3 110/4/3 118/4/3
f 120/4/3 118/4/3 119/4/3
f 121/3/3 120/3/3 119/3/3
f 122/3/3 120/3/3 121/3/3
f 123/3/3 120/3/3 122/3/3
f 124/3/3 120/3/3 123/3/3
f 125/4/3 123/4/3 122/4/3
f 126/4/3 123/4/3 125/4/3
f 127/4/3 125/4/3 122/4/3
f 128/4/3 123/4/3 126/4/3
f 129/4/3 127/4/3 122/4/3
f 129/4/3 128/4/3 127/4/3
f 130/4/3 123/4/3 128/4/3
f 130/4/3 128/4/3 129/4/3
f 137/3/3 136/3/3 135/3/3
f 138/3/3 136/3/3 137/3/3
f 139/3/3 132/3/3 131/3/3
f 140/3/3 132/3/3 139/3/3
f 141/3/3 134/3/3 133/3/3
f 142/3/3 139/3/3 131/3/3
f 143/1/3 140/1/3 139/1/3
f 143/3/3 139/3/3 142/3/3
f 144/3/3 141/3/3 140/3/3
f 144/1/3 140/1/3 143/1/3
f 145/3/3 134/3/3 141/3/3
f 145/3/3 141/3/3 144/3/3
f 150/3/4 151/3/4 152/3/4
f 152/3/4 151/3/4 153/3/4
f 146/3/4 147/3/4 154/3/4
f 154/3/4 147/3/4 155/3/4
f 148/3/4 149/3/4 156/3/4
f 146/3/4 154/3/4 157/3/4
f 154/1/4 155/1/4 158/1/4
f 157/3/4 154/3/4 158/3/4
f 155/3/4 156/3/4 159/3/4
f 158/1/4 155/1/4 159/1/4
f 156/3/4 149/3/4 160/3/4
f 159/3/4 156/3/4 160/3/4
f 161/4/4 162/4/4 163/4/4
f 163/4/4 162/4/4 164/4/4
f 161/4/4 163/4/4 165/4/4
f 164/4/4 162/4/4 166/4/4
f 161/4/4 165/4/4 167/4/4
f 165/4/4 166/4/4 167/4/4
f 166/4/4 162/4/4 168/4/4
f 167/4/4 166/4/4 168/4/4
f 161/4/4 167/4/4 169/4/4
f 168/4/4 162/4/4 170/4/4
f 161/4/4 169/4/4 171/4/4
f 169/4/4 170/4/4 171/4/4
f 170/4/4 162/4/4 172/4/4
f 171/4/4 170/4/4 172/4/4
f 171/3/4 172/3/4 173/3/4
f 173/3/4 172/3/4 174/3/4
f 174/3/4 172/3/4 175/3/4
f 175/3/4 172/3/4 176/3/4
f 174/4/4 175/4/4 177/4/4
f 177/4/4 175/4/4 178/4/4
f 174/4/4 177/4/4 179/4/4
f 178/4/4 175/4/4 180/4/4
f 174/4/4 179/4/4 181/4/4
f 179/4/4 180/4/4 181/4/4
f 180/4/4 175/4/4 182/4/4
f 181/4/4 180/4/4 182/4/4
f 183/3/4 184/3/4 185/3/4
f 185/3/4 184/3/4 186/3/4
f 187/3/4 188/3/4 189/3/4
f 189/3/4 188/3/4 190/3/4
f 194/3/5 193/3/5 192/3/5
f 196/3/5 194/3/5 192/3/5
f 196/3/5 195/3/5 194/3/5
f 197/3/5 195/3/5 196/3/5
f 198/4/5 192/4/5 191/4/5
f 199/3/5 196/3/5 192/3/5
f 199/4/5 192/4/5 198/4/5
f 200/3/5 196/3/5 199/3/5
f 205/3/5 202/3/5 201/3/5
f 206/3/5 202/3/5 205/3/5
f 207/3/5 204/3/5 203/3/5
f 208/3/5 204/3/5 207/3/5
f 209/2/5 206/2/5 205/2/5
f 210/2/5 206/2/5 209/2/5
f 211/2/5 208/2/5 207/2/5
f 212/2/5 208/2/5 211/2/5
f 215/4/5 214/4/5 213/4/5
f 216/4/5 214/4/5 215/4/5
f 223/4/5 218/4/5 217/4/5
f 224/4/5 218/4/5 223/4/5
f 225/2/5 220/2/5 219/2/5
f 226/2/5 220/2/5 225/2/5
f 227/2/5 222/2/5 221/2/5
f 228/2/5 222/2/5 227/2/5
f 229/3/5 226/3/5 225/3/5
f 230/3/5 226/3/5 229/3/5
f 231/3/5 228/3/5 227/3/5
f 232/3/5 228/3/5 231/3/5
f 235/4/5 234/4/5 233/4/5
f 236/4/5 234/4/5 235/4/5
f 239/4/5 238/4/5 237/4/5
f 240/4/5 238/4/5 239/4/5
f 241/3/6 242/3/6 245/3/6
f 245/3/6 242/3/6 246/3/6
f 243/3/6 244/3/6 247/3/6
f 247/3/6 244/3/6 248/3/6
f 245/2/6 246/2/6 249/2/6
f 249/2/6 246/2/6 250/2/6
f 247/2/6 248/2/6 251/2/6
f 251/2/6 248/2/6 252/2/6
f 253/4/6 254/4/6 255/4/6
f 255/4/6 254/4/6 256/4/6
f 257/4/6 258/4/6 263/4/6
f 263/4/6 258/4/6 264/4/6
f 259/2/6 260/2/6 265/2/6
f 265/2/6 260/2/6 266/2/6
f 261/2/6 262/2/6 267/2/6
f 267/2/6 262/2/6 268/2/6
f 265/3/6 266/3/6 269/3/6
f 269/3/6 266/3/6 270/3/6
f 267/3/6 268/3/6 271/3/6
f 271/3/6 268/3/6 272/3/6
f 273/4/6 274/4/6 275/4/6
f 275/4/6 274/4/6 276/4/6
f 277/4/6 278/4/6 279/4/6
f 279/4/6 278/4/6 280/4/6
f 282/3/6 283/3/6 284/3/6
f 282/3/6 284/3/6 286/3/6
f 284/3/6 285/3/6 286/3/6
f 286/3/6 285/3/6 287/3/6
f 281/4/6 282/4/6 288/4/6
f 282/3/6 286/3/6 289/3/6
f 288/4/6 282/4/6 289/4/6
f 289/3/6 286/3/6 290/3/6
