# MagicaVoxel @ Ephtracy

# group
g train

# material
mtllib train.mtl
usemtl palette

# normals
vn -1 0 0
vn 1 0 0
vn 0 0 1
vn 0 0 -1
vn 0 -1 0
vn 0 1 0

# texcoords
vt 0.755859 0.5
vt 0.779297 0.5
vt 0.783203 0.5
vt 0.888672 0.5
vt 0.982422 0.5
vt 0.986328 0.5
vt 0.994141 0.5

# verts
v -15 0 4
v -15 0 3
v -15 0 1
v -15 0 -3
v -15 0 -5
v -15 0 -6
v -15 4 -0
v -15 4 -2
v -15 6 -0
v -15 6 -2
v -15 7 4
v -15 7 3
v -15 7 1
v -15 7 -3
v -15 7 -5
v -15 7 -6
v -15 8 3
v -15 8 -5
v -14 8 -0
v -14 8 -2
v -14 9 -0
v -14 9 -2
v -14 10 -0
v -14 10 -2
v -13 8 1
v -13 8 -0
v -13 8 -2
v -13 8 -3
v -13 9 1
v -13 9 -0
v -13 9 -2
v -13 9 -3
v 13 10 1
v 13 10 -3
v 13 11 1
v 13 11 -3
v 14 9 -0
v 14 9 -2
v 14 10 -0
v 14 10 -2
v -12 9 -0
v -12 9 -2
v -12 10 -0
v -12 10 -2
v 14 10 1
v 14 10 -0
v 14 10 -2
v 14 10 -3
v 14 11 1
v 14 11 -0
v 14 11 -2
v 14 11 -3
v 15 8 1
v 15 8 -3
v 15 9 1
v 15 9 -0
v 15 9 -2
v 15 9 -3
v 15 11 -0
v 15 11 -2
v 16 0 4
v 16 0 3
v 16 0 -5
v 16 0 -6
v 16 7 4
v 16 7 3
v 16 7 1
v 16 7 -3
v 16 7 -5
v 16 7 -6
v 16 8 3
v 16 8 -5
v 17 0 3
v 17 0 1
v 17 0 -3
v 17 0 -5
v 17 4 -0
v 17 4 -2
v 17 6 -0
v 17 6 -2
v 17 7 3
v 17 7 1
v 17 7 -3
v 17 7 -5
v -15 0 4
v -15 7 4
v -14 4 4
v -14 6 4
v -11 0 4
v -11 4 4
v -11 6 4
v -11 7 4
v -10 4 4
v -10 6 4
v -7 4 4
v -7 6 4
v -6 0 4
v -6 4 4
v -6 6 4
v -6 7 4
v -5 0 4
v -5 1 4
v -4 4 4
v -4 6 4
v -3 4 4
v -3 6 4
v -1 4 4
v -1 6 4
v 0 4 4
v 0 6 4
v 1 0 4
v 1 1 4
v 2 0 4
v 2 4 4
v 2 6 4
v 2 7 4
v 3 4 4
v 3 6 4
v 7 4 4
v 7 6 4
v 8 4 4
v 8 6 4
v 12 4 4
v 12 6 4
v 13 0 4
v 13 7 4
v 14 4 4
v 14 6 4
v 15 4 4
v 15 6 4
v 16 0 4
v 16 7 4
v -15 7 3
v -15 8 3
v -11 7 3
v -6 7 3
v 2 7 3
v 13 7 3
v 16 0 3
v 16 7 3
v 16 8 3
v 17 0 3
v 17 7 3
v -13 8 1
v -13 9 1
v 13 10 1
v 13 11 1
v 14 10 1
v 14 11 1
v 15 8 1
v 15 9 1
v -14 8 -0
v -14 9 -0
v -14 10 -0
v -13 8 -0
v -13 9 -0
v -12 9 -0
v -12 10 -0
v 14 9 -0
v 14 10 -0
v 14 11 -0
v 15 9 -0
v 15 11 -0
v -14 8 -2
v -14 9 -2
v -14 10 -2
v -13 8 -2
v -13 9 -2
v -12 9 -2
v -12 10 -2
v 14 9 -2
v 14 10 -2
v 14 11 -2
v 15 9 -2
v 15 11 -2
v -13 8 -3
v -13 9 -3
v 13 10 -3
v 13 11 -3
v 14 10 -3
v 14 11 -3
v 15 8 -3
v 15 9 -3
v -15 7 -5
v -15 8 -5
v -11 7 -5
v -6 7 -5
v 2 7 -5
v 13 7 -5
v 16 0 -5
v 16 7 -5
v 16 8 -5
v 17 0 -5
v 17 7 -5
v -15 0 -6
v -15 7 -6
v -14 4 -6
v -14 6 -6
v -11 0 -6
v -11 4 -6
v -11 6 -6
v -11 7 -6
v -10 4 -6
v -10 6 -6
v -7 4 -6
v -7 6 -6
v -6 0 -6
v -6 4 -6
v -6 6 -6
v -6 7 -6
v -5 0 -6
v -5 1 -6
v -4 4 -6
v -4 6 -6
v -3 4 -6
v -3 6 -6
v -1 4 -6
v -1 6 -6
v 0 4 -6
v 0 6 -6
v 1 0 -6
v 1 1 -6
v 2 0 -6
v 2 4 -6
v 2 6 -6
v 2 7 -6
v 3 4 -6
v 3 6 -6
v 7 4 -6
v 7 6 -6
v 8 4 -6
v 8 6 -6
v 12 4 -6
v 12 6 -6
v 13 0 -6
v 13 7 -6
v 14 4 -6
v 14 6 -6
v 15 4 -6
v 15 6 -6
v 16 0 -6
v 16 7 -6
v -15 0 4
v -11 0 4
v -6 0 4
v -5 0 4
v 1 0 4
v 2 0 4
v 13 0 4
v 16 0 4
v -15 0 3
v -11 0 3
v -6 0 3
v -5 0 3
v 1 0 3
v 2 0 3
v 13 0 3
v 16 0 3
v 17 0 3
v -15 0 1
v -14 0 1
v 16 0 1
v 17 0 1
v -15 0 -3
v -14 0 -3
v 16 0 -3
v 17 0 -3
v -15 0 -5
v -11 0 -5
v -6 0 -5
v -5 0 -5
v 1 0 -5
v 2 0 -5
v 13 0 -5
v 16 0 -5
v 17 0 -5
v -15 0 -6
v -11 0 -6
v -6 0 -6
v -5 0 -6
v 1 0 -6
v 2 0 -6
v 13 0 -6
v 16 0 -6
v 13 10 1
v 14 10 1
v 14 10 -0
v 14 10 -2
v 13 10 -3
v 14 10 -3
v -15 7 4
v -11 7 4
v -6 7 4
v 2 7 4
v 13 7 4
v 16 7 4
v -15 7 3
v -11 7 3
v -6 7 3
v 2 7 3
v 13 7 3
v 16 7 3
v 17 7 3
v 16 7 1
v 17 7 1
v 16 7 -3
v 17 7 -3
v -15 7 -5
v -11 7 -5
v -6 7 -5
v 2 7 -5
v 13 7 -5
v 16 7 -5
v 17 7 -5
v -15 7 -6
v -11 7 -6
v -6 7 -6
v 2 7 -6
v 13 7 -6
v 16 7 -6
v -15 8 3
v 16 8 3
v -13 8 1
v 15 8 1
v -14 8 -0
v -13 8 -0
v -14 8 -2
v -13 8 -2
v -13 8 -3
v 15 8 -3
v -15 8 -5
v 16 8 -5
v -13 9 1
v 15 9 1
v -13 9 -0
v -12 9 -0
v 14 9 -0
v 15 9 -0
v -13 9 -2
v -12 9 -2
v 14 9 -2
v 15 9 -2
v -13 9 -3
v 15 9 -3
v -14 10 -0
v -12 10 -0
v -14 10 -2
v -12 10 -2
v 13 11 1
v 14 11 1
v 14 11 -0
v 15 11 -0
v 14 11 -2
v 15 11 -2
v 13 11 -3
v 14 11 -3

# faces
f 7/1/1 4/1/1 3/1/1
f 8/1/1 4/1/1 7/1/1
f 9/1/1 7/1/1 3/1/1
f 9/7/1 8/7/1 7/7/1
f 10/1/1 4/1/1 8/1/1
f 10/7/1 8/7/1 9/7/1
f 11/2/1 2/2/1 1/2/1
f 12/3/1 3/3/1 2/3/1
f 12/2/1 2/2/1 11/2/1
f 13/1/1 9/1/1 3/1/1
f 13/3/1 3/3/1 12/3/1
f 13/1/1 10/1/1 9/1/1
f 14/1/1 4/1/1 10/1/1
f 14/1/1 10/1/1 13/1/1
f 14/3/1 5/3/1 4/3/1
f 15/2/1 6/2/1 5/2/1
f 15/3/1 5/3/1 14/3/1
f 16/2/1 6/2/1 15/2/1
f 17/3/1 13/3/1 12/3/1
f 17/3/1 14/3/1 13/3/1
f 17/3/1 15/3/1 14/3/1
f 18/3/1 15/3/1 17/3/1
f 21/7/1 20/7/1 19/7/1
f 22/7/1 20/7/1 21/7/1
f 23/6/1 22/6/1 21/6/1
f 24/6/1 22/6/1 23/6/1
f 29/5/1 26/5/1 25/5/1
f 30/5/1 26/5/1 29/5/1
f 31/5/1 28/5/1 27/5/1
f 32/5/1 28/5/1 31/5/1
f 35/7/1 34/7/1 33/7/1
f 36/7/1 34/7/1 35/7/1
f 39/7/1 38/7/1 37/7/1
f 40/7/1 38/7/1 39/7/1
f 41/6/2 42/6/2 43/6/2
f 43/6/2 42/6/2 44/6/2
f 45/7/2 46/7/2 49/7/2
f 49/7/2 46/7/2 50/7/2
f 47/7/2 48/7/2 51/7/2
f 51/7/2 48/7/2 52/7/2
f 53/5/2 54/5/2 55/5/2
f 55/5/2 54/5/2 56/5/2
f 56/5/2 54/5/2 57/5/2
f 57/5/2 54/5/2 58/5/2
f 56/7/2 57/7/2 59/7/2
f 59/7/2 57/7/2 60/7/2
f 61/2/2 62/2/2 65/2/2
f 65/2/2 62/2/2 66/2/2
f 63/2/2 64/2/2 69/2/2
f 69/2/2 64/2/2 70/2/2
f 67/3/2 68/3/2 71/3/2
f 68/3/2 69/3/2 71/3/2
f 66/3/2 67/3/2 71/3/2
f 71/3/2 69/3/2 72/3/2
f 74/1/2 75/1/2 77/1/2
f 77/1/2 75/1/2 78/1/2
f 74/1/2 77/1/2 79/1/2
f 77/7/2 78/7/2 79/7/2
f 78/1/2 75/1/2 80/1/2
f 79/7/2 78/7/2 80/7/2
f 73/3/2 74/3/2 81/3/2
f 74/1/2 79/1/2 82/1/2
f 81/3/2 74/3/2 82/3/2
f 79/1/2 80/1/2 82/1/2
f 80/1/2 75/1/2 83/1/2
f 82/1/2 80/1/2 83/1/2
f 75/3/2 76/3/2 83/3/2
f 83/3/2 76/3/2 84/3/2
f 87/2/3 86/2/3 85/2/3
f 88/2/3 86/2/3 87/2/3
f 89/2/3 87/2/3 85/2/3
f 90/7/3 88/7/3 87/7/3
f 90/2/3 87/2/3 89/2/3
f 91/2/3 86/2/3 88/2/3
f 91/7/3 88/7/3 90/7/3
f 92/2/3 86/2/3 91/2/3
f 93/3/3 90/3/3 89/3/3
f 93/3/3 91/3/3 90/3/3
f 93/3/3 92/3/3 91/3/3
f 94/3/3 92/3/3 93/3/3
f 95/3/3 93/3/3 89/3/3
f 95/7/3 94/7/3 93/7/3
f 96/3/3 92/3/3 94/3/3
f 96/7/3 94/7/3 95/7/3
f 97/3/3 95/3/3 89/3/3
f 97/3/3 96/3/3 95/3/3
f 98/3/3 96/3/3 97/3/3
f 99/3/3 92/3/3 96/3/3
f 99/3/3 96/3/3 98/3/3
f 100/3/3 92/3/3 99/3/3
f 101/1/3 98/1/3 97/1/3
f 102/1/3 98/1/3 101/1/3
f 103/7/3 99/7/3 98/7/3
f 103/1/3 98/1/3 102/1/3
f 104/1/3 100/1/3 99/1/3
f 104/7/3 99/7/3 103/7/3
f 105/1/3 103/1/3 102/1/3
f 105/1/3 104/1/3 103/1/3
f 106/1/3 100/1/3 104/1/3
f 106/1/3 104/1/3 105/1/3
f 107/1/3 105/1/3 102/1/3
f 107/7/3 106/7/3 105/7/3
f 108/1/3 100/1/3 106/1/3
f 108/7/3 106/7/3 107/7/3
f 109/1/3 107/1/3 102/1/3
f 109/1/3 108/1/3 107/1/3
f 110/1/3 100/1/3 108/1/3
f 110/1/3 108/1/3 109/1/3
f 111/4/3 102/4/3 101/4/3
f 112/1/3 109/1/3 102/1/3
f 112/4/3 102/4/3 111/4/3
f 113/1/3 112/1/3 111/1/3
f 114/7/3 110/7/3 109/7/3
f 114/1/3 112/1/3 113/1/3
f 114/1/3 109/1/3 112/1/3
f 115/1/3 100/1/3 110/1/3
f 115/7/3 110/7/3 114/7/3
f 116/1/3 100/1/3 115/1/3
f 117/3/3 114/3/3 113/3/3
f 117/3/3 115/3/3 114/3/3
f 117/3/3 116/3/3 115/3/3
f 118/3/3 116/3/3 117/3/3
f 119/3/3 117/3/3 113/3/3
f 119/7/3 118/7/3 117/7/3
f 120/3/3 116/3/3 118/3/3
f 120/7/3 118/7/3 119/7/3
f 121/3/3 119/3/3 113/3/3
f 121/3/3 120/3/3 119/3/3
f 122/3/3 116/3/3 120/3/3
f 122/3/3 120/3/3 121/3/3
f 123/3/3 121/3/3 113/3/3
f 123/7/3 122/7/3 121/7/3
f 124/3/3 116/3/3 122/3/3
f 124/7/3 122/7/3 123/7/3
f 125/3/3 123/3/3 113/3/3
f 125/3/3 124/3/3 123/3/3
f 126/3/3 116/3/3 124/3/3
f 126/3/3 124/3/3 125/3/3
f 127/2/3 126/2/3 125/2/3
f 128/2/3 126/2/3 127/2/3
f 129/2/3 127/2/3 125/2/3
f 129/7/3 128/7/3 127/7/3
f 130/2/3 126/2/3 128/2/3
f 130/7/3 128/7/3 129/7/3
f 131/2/3 129/2/3 125/2/3
f 131/2/3 130/2/3 129/2/3
f 132/2/3 126/2/3 130/2/3
f 132/2/3 130/2/3 131/2/3
f 135/3/3 134/3/3 133/3/3
f 136/3/3 134/3/3 135/3/3
f 137/3/3 134/3/3 136/3/3
f 138/3/3 134/3/3 137/3/3
f 140/3/3 134/3/3 138/3/3
f 141/3/3 134/3/3 140/3/3
f 142/3/3 140/3/3 139/3/3
f 143/3/3 140/3/3 142/3/3
f 148/7/3 147/7/3 146/7/3
f 149/7/3 147/7/3 148/7/3
f 150/5/3 145/5/3 144/5/3
f 151/5/3 145/5/3 150/5/3
f 155/7/3 153/7/3 152/7/3
f 156/6/3 154/6/3 153/6/3
f 156/7/3 153/7/3 155/7/3
f 157/6/3 154/6/3 156/6/3
f 158/6/3 154/6/3 157/6/3
f 162/7/3 160/7/3 159/7/3
f 162/7/3 161/7/3 160/7/3
f 163/7/3 161/7/3 162/7/3
f 164/7/4 165/7/4 167/7/4
f 165/6/4 166/6/4 168/6/4
f 167/7/4 165/7/4 168/7/4
f 168/6/4 166/6/4 169/6/4
f 169/6/4 166/6/4 170/6/4
f 171/7/4 172/7/4 174/7/4
f 172/7/4 173/7/4 174/7/4
f 174/7/4 173/7/4 175/7/4
f 178/7/4 179/7/4 180/7/4
f 180/7/4 179/7/4 181/7/4
f 176/5/4 177/5/4 182/5/4
f 182/5/4 177/5/4 183/5/4
f 184/3/4 185/3/4 186/3/4
f 186/3/4 185/3/4 187/3/4
f 187/3/4 185/3/4 188/3/4
f 188/3/4 185/3/4 189/3/4
f 189/3/4 185/3/4 191/3/4
f 191/3/4 185/3/4 192/3/4
f 190/3/4 191/3/4 193/3/4
f 193/3/4 191/3/4 194/3/4
f 195/2/4 196/2/4 197/2/4
f 197/2/4 196/2/4 198/2/4
f 195/2/4 197/2/4 199/2/4
f 197/7/4 198/7/4 200/7/4
f 199/2/4 197/2/4 200/2/4
f 198/2/4 196/2/4 201/2/4
f 200/7/4 198/7/4 201/7/4
f 201/2/4 196/2/4 202/2/4
f 199/3/4 200/3/4 203/3/4
f 200/3/4 201/3/4 203/3/4
f 201/3/4 202/3/4 203/3/4
f 203/3/4 202/3/4 204/3/4
f 199/3/4 203/3/4 205/3/4
f 203/7/4 204/7/4 205/7/4
f 204/3/4 202/3/4 206/3/4
f 205/7/4 204/7/4 206/7/4
f 199/3/4 205/3/4 207/3/4
f 205/3/4 206/3/4 207/3/4
f 207/3/4 206/3/4 208/3/4
f 206/3/4 202/3/4 209/3/4
f 208/3/4 206/3/4 209/3/4
f 209/3/4 202/3/4 210/3/4
f 207/1/4 208/1/4 211/1/4
f 211/1/4 208/1/4 212/1/4
f 208/7/4 209/7/4 213/7/4
f 212/1/4 208/1/4 213/1/4
f 209/1/4 210/1/4 214/1/4
f 213/7/4 209/7/4 214/7/4
f 212/1/4 213/1/4 215/1/4
f 213/1/4 214/1/4 215/1/4
f 214/1/4 210/1/4 216/1/4
f 215/1/4 214/1/4 216/1/4
f 212/1/4 215/1/4 217/1/4
f 215/7/4 216/7/4 217/7/4
f 216/1/4 210/1/4 218/1/4
f 217/7/4 216/7/4 218/7/4
f 212/1/4 217/1/4 219/1/4
f 217/1/4 218/1/4 219/1/4
f 218/1/4 210/1/4 220/1/4
f 219/1/4 218/1/4 220/1/4
f 211/4/4 212/4/4 221/4/4
f 212/1/4 219/1/4 222/1/4
f 221/4/4 212/4/4 222/4/4
f 221/1/4 222/1/4 223/1/4
f 219/7/4 220/7/4 224/7/4
f 223/1/4 222/1/4 224/1/4
f 222/1/4 219/1/4 224/1/4
f 220/1/4 210/1/4 225/1/4
f 224/7/4 220/7/4 225/7/4
f 225/1/4 210/1/4 226/1/4
f 223/3/4 224/3/4 227/3/4
f 224/3/4 225/3/4 227/3/4
f 225/3/4 226/3/4 227/3/4
f 227/3/4 226/3/4 228/3/4
f 223/3/4 227/3/4 229/3/4
f 227/7/4 228/7/4 229/7/4
f 228/3/4 226/3/4 230/3/4
f 229/7/4 228/7/4 230/7/4
f 223/3/4 229/3/4 231/3/4
f 229/3/4 230/3/4 231/3/4
f 230/3/4 226/3/4 232/3/4
f 231/3/4 230/3/4 232/3/4
f 223/3/4 231/3/4 233/3/4
f 231/7/4 232/7/4 233/7/4
f 232/3/4 226/3/4 234/3/4
f 233/7/4 232/7/4 234/7/4
f 223/3/4 233/3/4 235/3/4
f 233/3/4 234/3/4 235/3/4
f 234/3/4 226/3/4 236/3/4
f 235/3/4 234/3/4 236/3/4
f 235/2/4 236/2/4 237/2/4
f 237/2/4 236/2/4 238/2/4
f 235/2/4 237/2/4 239/2/4
f 237/7/4 238/7/4 239/7/4
f 238/2/4 236/2/4 240/2/4
f 239/7/4 238/7/4 240/7/4
f 235/2/4 239/2/4 241/2/4
f 239/2/4 240/2/4 241/2/4
f 240/2/4 236/2/4 242/2/4
f 241/2/4 240/2/4 242/2/4
f 251/2/5 244/2/5 243/2/5
f 252/3/5 245/3/5 244/3/5
f 252/2/5 244/2/5 251/2/5
f 253/1/5 246/1/5 245/1/5
f 253/3/5 245/3/5 252/3/5
f 254/4/5 247/4/5 246/4/5
f 254/1/5 246/1/5 253/1/5
f 255/1/5 248/1/5 247/1/5
f 255/4/5 247/4/5 254/4/5
f 256/3/5 249/3/5 248/3/5
f 256/1/5 248/1/5 255/1/5
f 257/2/5 250/2/5 249/2/5
f 257/3/5 249/3/5 256/3/5
f 258/2/5 250/2/5 257/2/5
f 260/3/5 256/3/5 255/3/5
f 260/3/5 259/3/5 258/3/5
f 260/3/5 258/3/5 257/3/5
f 260/3/5 257/3/5 256/3/5
f 260/3/5 255/3/5 254/3/5
f 260/3/5 254/3/5 253/3/5
f 260/3/5 253/3/5 252/3/5
f 260/3/5 252/3/5 251/3/5
f 261/3/5 259/3/5 260/3/5
f 262/3/5 259/3/5 261/3/5
f 263/3/5 259/3/5 262/3/5
f 264/1/5 261/1/5 260/1/5
f 265/3/5 262/3/5 261/3/5
f 265/1/5 261/1/5 264/1/5
f 266/1/5 263/1/5 262/1/5
f 266/3/5 262/3/5 265/3/5
f 267/1/5 263/1/5 266/1/5
f 268/3/5 265/3/5 264/3/5
f 268/3/5 266/3/5 265/3/5
f 268/3/5 267/3/5 266/3/5
f 269/3/5 267/3/5 268/3/5
f 270/3/5 267/3/5 269/3/5
f 271/3/5 267/3/5 270/3/5
f 272/3/5 267/3/5 271/3/5
f 273/3/5 267/3/5 272/3/5
f 274/3/5 267/3/5 273/3/5
f 275/3/5 267/3/5 274/3/5
f 276/3/5 267/3/5 275/3/5
f 277/2/5 269/2/5 268/2/5
f 278/3/5 270/3/5 269/3/5
f 278/2/5 269/2/5 277/2/5
f 279/1/5 271/1/5 270/1/5
f 279/3/5 270/3/5 278/3/5
f 280/4/5 272/4/5 271/4/5
f 280/1/5 271/1/5 279/1/5
f 281/1/5 273/1/5 272/1/5
f 281/4/5 272/4/5 280/4/5
f 282/3/5 274/3/5 273/3/5
f 282/1/5 273/1/5 281/1/5
f 283/2/5 275/2/5 274/2/5
f 283/3/5 274/3/5 282/3/5
f 284/2/5 275/2/5 283/2/5
f 287/7/5 286/7/5 285/7/5
f 288/7/5 287/7/5 285/7/5
f 289/7/5 288/7/5 285/7/5
f 290/7/5 288/7/5 289/7/5
f 291/2/6 292/2/6 297/2/6
f 292/3/6 293/3/6 298/3/6
f 297/2/6 292/2/6 298/2/6
f 293/1/6 294/1/6 299/1/6
f 298/3/6 293/3/6 299/3/6
f 294/3/6 295/3/6 300/3/6
f 299/1/6 294/1/6 300/1/6
f 295/2/6 296/2/6 301/2/6
f 300/3/6 295/3/6 301/3/6
f 301/2/6 296/2/6 302/2/6
f 302/3/6 303/3/6 304/3/6
f 304/3/6 303/3/6 305/3/6
f 304/1/6 305/1/6 306/1/6
f 306/1/6 305/1/6 307/1/6
f 306/3/6 307/3/6 313/3/6
f 313/3/6 307/3/6 314/3/6
f 308/2/6 309/2/6 315/2/6
f 309/3/6 310/3/6 316/3/6
f 315/2/6 309/2/6 316/2/6
f 310/1/6 311/1/6 317/1/6
f 316/3/6 310/3/6 317/3/6
f 311/3/6 312/3/6 318/3/6
f 317/1/6 311/1/6 318/1/6
f 312/2/6 313/2/6 319/2/6
f 318/3/6 312/3/6 319/3/6
f 319/2/6 313/2/6 320/2/6
f 321/3/6 322/3/6 323/3/6
f 323/3/6 322/3/6 324/3/6
f 321/3/6 323/3/6 325/3/6
f 325/3/6 323/3/6 326/3/6
f 321/3/6 325/3/6 327/3/6
f 327/3/6 328/3/6 329/3/6
f 324/3/6 322/3/6 330/3/6
f 327/3/6 329/3/6 331/3/6
f 329/3/6 330/3/6 331/3/6
f 321/3/6 327/3/6 331/3/6
f 330/3/6 322/3/6 332/3/6
f 331/3/6 330/3/6 332/3/6
f 333/5/6 334/5/6 335/5/6
f 335/5/6 334/5/6 336/5/6
f 336/5/6 334/5/6 337/5/6
f 337/5/6 334/5/6 338/5/6
f 336/5/6 337/5/6 340/5/6
f 340/5/6 337/5/6 341/5/6
f 339/5/6 340/5/6 343/5/6
f 341/5/6 342/5/6 343/5/6
f 340/5/6 341/5/6 343/5/6
f 343/5/6 342/5/6 344/5/6
f 345/6/6 346/6/6 347/6/6
f 347/6/6 346/6/6 348/6/6
f 349/7/6 350/7/6 351/7/6
f 349/7/6 351/7/6 353/7/6
f 351/7/6 352/7/6 353/7/6
f 353/7/6 352/7/6 354/7/6
f 349/7/6 353/7/6 355/7/6
f 355/7/6 353/7/6 356/7/6
